<mxfile host="Electron" agent="Mozilla/5.0 (Macintosh; Intel Mac OS X 10_15_7) AppleWebKit/537.36 (KHTML, like Gecko) draw.io/26.2.15 Chrome/134.0.6998.205 Electron/35.2.1 Safari/537.36" version="26.2.15">
  <diagram id="ytGwrhohGWw4CPeeJFjh" name="Page-1">
    <mxGraphModel dx="1426" dy="859" grid="1" gridSize="10" guides="1" tooltips="1" connect="1" arrows="1" fold="1" page="1" pageScale="1" pageWidth="827" pageHeight="1169" background="#ffffff" math="0" shadow="0">
      <root>
        <mxCell id="0" />
        <mxCell id="1" parent="0" />
        <object placeholders="1" c4Name="C5DEC CAD" c4Type="SystemScopeBoundary" c4Application="System" label="&lt;font style=&quot;font-size: 16px&quot;&gt;&lt;b&gt;&lt;div style=&quot;text-align: left&quot;&gt;%c4Name%&lt;/div&gt;&lt;/b&gt;&lt;/font&gt;&lt;div style=&quot;text-align: left&quot;&gt;[%c4Application%]&lt;/div&gt;" id="17">
          <mxCell style="rounded=1;fontSize=11;whiteSpace=wrap;html=1;dashed=1;arcSize=20;fillColor=none;strokeColor=#666666;fontColor=#333333;labelBackgroundColor=none;align=left;verticalAlign=bottom;labelBorderColor=none;spacingTop=0;spacing=10;dashPattern=8 4;metaEdit=1;rotatable=0;perimeter=rectanglePerimeter;noLabel=0;labelPadding=0;allowArrows=0;connectable=0;expand=0;recursiveResize=0;editable=1;pointerEvents=0;absoluteArcSize=1;points=[[0.25,0,0],[0.5,0,0],[0.75,0,0],[1,0.25,0],[1,0.5,0],[1,0.75,0],[0.75,1,0],[0.5,1,0],[0.25,1,0],[0,0.75,0],[0,0.5,0],[0,0.25,0]];" parent="1" vertex="1">
            <mxGeometry x="157" y="231" width="465" height="380" as="geometry" />
          </mxCell>
        </object>
        <mxCell id="20" value="&lt;b&gt;Project&lt;/b&gt;&lt;div&gt;&lt;b&gt;Management&lt;/b&gt;&lt;/div&gt;&lt;div&gt;(TUI, CLI)&lt;/div&gt;" style="ellipse;whiteSpace=wrap;html=1;fillColor=#dae8fc;strokeColor=#6c8ebf;sketch=0;shadow=0;aspect=fixed;" parent="1" vertex="1">
          <mxGeometry x="500" y="475.5" width="80" height="80" as="geometry" />
        </mxCell>
        <mxCell id="56" value="" style="html=1;rounded=1;dashed=1;strokeColor=default;align=center;verticalAlign=middle;fontFamily=Helvetica;fontSize=11;fontColor=default;labelBackgroundColor=default;endArrow=block;endFill=0;edgeStyle=orthogonalEdgeStyle;" parent="1" source="24" target="55" edge="1">
          <mxGeometry relative="1" as="geometry">
            <Array as="points">
              <mxPoint x="435" y="295" />
            </Array>
          </mxGeometry>
        </mxCell>
        <mxCell id="66" style="shape=connector;rounded=1;html=1;dashed=1;strokeColor=default;align=center;verticalAlign=middle;fontFamily=Helvetica;fontSize=11;fontColor=default;labelBackgroundColor=default;endArrow=block;endFill=0;" parent="1" source="24" target="57" edge="1">
          <mxGeometry relative="1" as="geometry">
            <Array as="points">
              <mxPoint x="670" y="250" />
            </Array>
          </mxGeometry>
        </mxCell>
        <mxCell id="68" style="edgeStyle=orthogonalEdgeStyle;shape=connector;rounded=1;html=1;dashed=1;strokeColor=default;align=center;verticalAlign=middle;fontFamily=Helvetica;fontSize=11;fontColor=default;labelBackgroundColor=default;endArrow=block;endFill=0;" parent="1" source="24" target="67" edge="1">
          <mxGeometry relative="1" as="geometry">
            <Array as="points">
              <mxPoint x="540" y="240" />
              <mxPoint x="585" y="240" />
            </Array>
          </mxGeometry>
        </mxCell>
        <mxCell id="24" value="&lt;b&gt;SSDLC&lt;/b&gt;&lt;div&gt;(CLI, KB)&lt;/div&gt;" style="ellipse;whiteSpace=wrap;html=1;fillColor=#dae8fc;strokeColor=#6c8ebf;sketch=0;shadow=0;aspect=fixed;" parent="1" vertex="1">
          <mxGeometry x="505" y="260" width="70" height="70" as="geometry" />
        </mxCell>
        <mxCell id="36" value="&lt;b&gt;Common Criteria&lt;/b&gt;&lt;div&gt;&lt;b&gt;Toolbox&lt;/b&gt;&lt;/div&gt;&lt;div&gt;(TUI, GUI, CLI)&lt;/div&gt;" style="ellipse;whiteSpace=wrap;html=1;fillColor=#dae8fc;strokeColor=#6c8ebf;sketch=0;shadow=0;" parent="1" vertex="1">
          <mxGeometry x="336" y="460" width="127" height="65" as="geometry" />
        </mxCell>
        <mxCell id="65" style="edgeStyle=orthogonalEdgeStyle;html=1;dashed=1;endArrow=block;endFill=0;" parent="1" source="40" target="58" edge="1">
          <mxGeometry relative="1" as="geometry">
            <Array as="points">
              <mxPoint x="300" y="510" />
              <mxPoint x="300" y="720" />
            </Array>
          </mxGeometry>
        </mxCell>
        <mxCell id="40" value="&lt;b&gt;CPSSA&lt;/b&gt;&lt;div&gt;(KB)&lt;/div&gt;" style="ellipse;whiteSpace=wrap;html=1;fillColor=#dae8fc;strokeColor=#6c8ebf;sketch=0;shadow=0;aspect=fixed;" parent="1" vertex="1">
          <mxGeometry x="214.5" y="470" width="70" height="70" as="geometry" />
        </mxCell>
        <mxCell id="54" value="" style="html=1;rounded=1;dashed=1;strokeColor=default;align=center;verticalAlign=middle;fontFamily=Helvetica;fontSize=11;fontColor=default;labelBackgroundColor=default;endArrow=block;endFill=0;entryX=0.5;entryY=1;entryDx=0;entryDy=0;" parent="1" source="41" target="53" edge="1">
          <mxGeometry relative="1" as="geometry">
            <Array as="points">
              <mxPoint x="240" y="210" />
            </Array>
          </mxGeometry>
        </mxCell>
        <mxCell id="41" value="&lt;b&gt;Cryptography&lt;/b&gt;&lt;div&gt;(CLI)&lt;/div&gt;" style="ellipse;whiteSpace=wrap;html=1;fillColor=#dae8fc;strokeColor=#6c8ebf;sketch=0;shadow=0;" parent="1" vertex="1">
          <mxGeometry x="204.5" y="260" width="90" height="85" as="geometry" />
        </mxCell>
        <mxCell id="43" style="edgeStyle=orthogonalEdgeStyle;html=1;rounded=0;curved=0;" parent="1" source="42" target="20" edge="1">
          <mxGeometry relative="1" as="geometry">
            <Array as="points">
              <mxPoint x="600" y="516" />
              <mxPoint x="600" y="516" />
            </Array>
          </mxGeometry>
        </mxCell>
        <mxCell id="89" style="edgeStyle=none;html=1;" parent="1" source="42" target="83" edge="1">
          <mxGeometry relative="1" as="geometry" />
        </mxCell>
        <mxCell id="42" value="Project manager" style="shape=umlActor;html=1;verticalLabelPosition=bottom;verticalAlign=top;align=center;fillColor=#f9f7ed;strokeColor=#36393d;" parent="1" vertex="1">
          <mxGeometry x="720" y="485.5" width="30" height="60" as="geometry" />
        </mxCell>
        <mxCell id="48" style="edgeStyle=none;html=1;" parent="1" source="44" target="41" edge="1">
          <mxGeometry relative="1" as="geometry" />
        </mxCell>
        <mxCell id="86" style="edgeStyle=orthogonalEdgeStyle;html=1;rounded=0;curved=0;" parent="1" source="44" target="83" edge="1">
          <mxGeometry relative="1" as="geometry">
            <Array as="points">
              <mxPoint x="370" y="220" />
            </Array>
          </mxGeometry>
        </mxCell>
        <mxCell id="44" value="Security engineer" style="shape=umlActor;html=1;verticalLabelPosition=bottom;verticalAlign=top;align=center;fillColor=#cdeb8b;strokeColor=#36393d;" parent="1" vertex="1">
          <mxGeometry x="50" y="190" width="30" height="60" as="geometry" />
        </mxCell>
        <mxCell id="46" style="edgeStyle=none;html=1;" parent="1" source="45" target="40" edge="1">
          <mxGeometry relative="1" as="geometry" />
        </mxCell>
        <mxCell id="47" style="edgeStyle=none;html=1;" parent="1" source="45" target="41" edge="1">
          <mxGeometry relative="1" as="geometry" />
        </mxCell>
        <mxCell id="84" style="edgeStyle=none;html=1;" parent="1" source="45" target="83" edge="1">
          <mxGeometry relative="1" as="geometry" />
        </mxCell>
        <mxCell id="45" value="Security analyst" style="shape=umlActor;html=1;verticalLabelPosition=bottom;verticalAlign=top;align=center;fillColor=#ffcc99;strokeColor=#36393d;" parent="1" vertex="1">
          <mxGeometry x="50" y="355" width="30" height="60" as="geometry" />
        </mxCell>
        <mxCell id="50" style="edgeStyle=none;html=1;" parent="1" source="49" target="40" edge="1">
          <mxGeometry relative="1" as="geometry" />
        </mxCell>
        <mxCell id="85" style="edgeStyle=none;html=1;" parent="1" source="49" target="83" edge="1">
          <mxGeometry relative="1" as="geometry" />
        </mxCell>
        <mxCell id="49" value="Risk manager" style="shape=umlActor;html=1;verticalLabelPosition=bottom;verticalAlign=top;align=center;fillColor=#ffcc99;strokeColor=#36393d;" parent="1" vertex="1">
          <mxGeometry x="50" y="510" width="30" height="60" as="geometry" />
        </mxCell>
        <mxCell id="53" value="Cryptographic tools&lt;div&gt;(e.g. OpenSSL)&lt;/div&gt;" style="ellipse;whiteSpace=wrap;html=1;fillColor=#e1d5e7;strokeColor=#9673a6;sketch=0;shadow=0;" parent="1" vertex="1">
          <mxGeometry x="20" y="30" width="140" height="85" as="geometry" />
        </mxCell>
        <mxCell id="55" value="Cloud-based software development platforms&lt;div&gt;(e.g. GitHub, GitLab)&lt;/div&gt;" style="ellipse;whiteSpace=wrap;html=1;fillColor=#e1d5e7;strokeColor=#9673a6;sketch=0;shadow=0;" parent="1" vertex="1">
          <mxGeometry x="365" y="25" width="140" height="95" as="geometry" />
        </mxCell>
        <mxCell id="57" value="Artifact management software&lt;div&gt;(e.g. Doorstop)&lt;/div&gt;" style="ellipse;whiteSpace=wrap;html=1;fillColor=#e1d5e7;strokeColor=#9673a6;sketch=0;shadow=0;" parent="1" vertex="1">
          <mxGeometry x="674" y="25" width="140" height="95" as="geometry" />
        </mxCell>
        <mxCell id="58" value="Threat Analysis and&lt;div&gt;Risk Assessment tools&lt;br&gt;&lt;div&gt;(e.g. ThreatDragon, OpenTRICK)&lt;/div&gt;&lt;/div&gt;" style="ellipse;whiteSpace=wrap;html=1;fillColor=#e1d5e7;strokeColor=#9673a6;sketch=0;shadow=0;" parent="1" vertex="1">
          <mxGeometry x="67" y="670" width="160" height="100" as="geometry" />
        </mxCell>
        <mxCell id="99" style="edgeStyle=orthogonalEdgeStyle;html=1;entryX=0.5;entryY=1;entryDx=0;entryDy=0;" parent="1" source="59" target="36" edge="1">
          <mxGeometry relative="1" as="geometry" />
        </mxCell>
        <mxCell id="59" value="Evaluation laboratories" style="shape=umlActor;html=1;verticalLabelPosition=bottom;verticalAlign=top;align=center;fillColor=#ffcccc;strokeColor=#36393d;" parent="1" vertex="1">
          <mxGeometry x="384.5" y="666" width="30" height="60" as="geometry" />
        </mxCell>
        <mxCell id="62" style="edgeStyle=none;html=1;entryX=1;entryY=1;entryDx=0;entryDy=0;" parent="1" source="61" target="24" edge="1">
          <mxGeometry relative="1" as="geometry" />
        </mxCell>
        <mxCell id="64" style="edgeStyle=none;html=1;" parent="1" source="61" target="36" edge="1">
          <mxGeometry relative="1" as="geometry">
            <mxPoint x="460" y="420" as="targetPoint" />
          </mxGeometry>
        </mxCell>
        <mxCell id="88" style="edgeStyle=none;html=1;" parent="1" source="61" target="83" edge="1">
          <mxGeometry relative="1" as="geometry" />
        </mxCell>
        <mxCell id="61" value="Developers" style="shape=umlActor;html=1;verticalLabelPosition=bottom;verticalAlign=top;align=center;fillColor=#ffff88;strokeColor=#36393d;" parent="1" vertex="1">
          <mxGeometry x="668" y="355" width="30" height="60" as="geometry" />
        </mxCell>
        <mxCell id="67" value="Integrated Development&lt;div&gt;Environment&amp;nbsp;&lt;div&gt;(Visual Studio Code)&lt;/div&gt;&lt;/div&gt;" style="ellipse;whiteSpace=wrap;html=1;fillColor=#e1d5e7;strokeColor=#9673a6;sketch=0;shadow=0;" parent="1" vertex="1">
          <mxGeometry x="510" y="100" width="150" height="95" as="geometry" />
        </mxCell>
        <mxCell id="70" style="shape=connector;rounded=0;html=1;entryX=1;entryY=0.5;entryDx=0;entryDy=0;strokeColor=default;align=center;verticalAlign=middle;fontFamily=Helvetica;fontSize=11;fontColor=default;labelBackgroundColor=default;endArrow=classic;endFill=1;" parent="1" source="69" target="24" edge="1">
          <mxGeometry relative="1" as="geometry" />
        </mxCell>
        <mxCell id="87" style="edgeStyle=none;html=1;" parent="1" source="69" target="83" edge="1">
          <mxGeometry relative="1" as="geometry" />
        </mxCell>
        <mxCell id="69" value="Testers" style="shape=umlActor;html=1;verticalLabelPosition=bottom;verticalAlign=top;align=center;fillColor=#ffff88;strokeColor=#36393d;" parent="1" vertex="1">
          <mxGeometry x="720" y="265" width="30" height="60" as="geometry" />
        </mxCell>
        <mxCell id="76" value="&lt;div&gt;&lt;font style=&quot;font-size: 12px;&quot;&gt;&lt;u&gt;Acronyms&lt;/u&gt;&lt;/font&gt;&lt;/div&gt;&lt;div&gt;&lt;font style=&quot;font-size: 12px;&quot;&gt;CLI: Command Line Interface&lt;/font&gt;&lt;/div&gt;&lt;div&gt;&lt;font style=&quot;font-size: 12px;&quot;&gt;CPSSA:&amp;nbsp;&lt;/font&gt;&lt;span style=&quot;background-color: light-dark(#ffffff, var(--ge-dark-color, #121212));&quot;&gt;&lt;font style=&quot;font-size: 12px;&quot;&gt;Cyber-Physical System Security Assessment&lt;/font&gt;&lt;/span&gt;&lt;/div&gt;&lt;div&gt;&lt;span style=&quot;background-color: light-dark(#ffffff, var(--ge-dark-color, #121212));&quot;&gt;&lt;font style=&quot;font-size: 12px;&quot;&gt;GUI: Graphical User Interface&lt;/font&gt;&lt;/span&gt;&lt;/div&gt;&lt;div&gt;&lt;span style=&quot;background-color: light-dark(#ffffff, var(--ge-dark-color, #121212));&quot;&gt;&lt;font style=&quot;font-size: 12px;&quot;&gt;KB: Knowledge Base&lt;/font&gt;&lt;/span&gt;&lt;/div&gt;&lt;a id=&quot;user-content-cyber-physical-system-security-assessment-cpssa&quot; class=&quot;anchor&quot; aria-hidden=&quot;true&quot; href=&quot;#cyber-physical-system-security-assessment-cpssa&quot;&gt;&lt;/a&gt;&lt;font style=&quot;font-size: 12px;&quot;&gt;SSDLC: Secure Software Development Life Cycle&lt;/font&gt;&lt;div&gt;&lt;span style=&quot;font-size: 12px;&quot;&gt;TUI: Textual User Interface&lt;/span&gt;&lt;/div&gt;" style="strokeWidth=1;shadow=0;dashed=0;align=center;html=1;shape=mxgraph.mockup.text.textBox;fontColor=#666666;align=left;fontSize=17;spacingLeft=4;spacingTop=-3;whiteSpace=wrap;strokeColor=#666666;mainText=;fontFamily=Helvetica;labelBackgroundColor=default;" parent="1" vertex="1">
          <mxGeometry x="500" y="790" width="310" height="170" as="geometry" />
        </mxCell>
        <mxCell id="77" value="" style="group" parent="1" vertex="1" connectable="0">
          <mxGeometry x="20" y="860" width="184.5" height="80.71000000000004" as="geometry" />
        </mxCell>
        <mxCell id="28" value="" style="group" parent="77" vertex="1" connectable="0">
          <mxGeometry width="184.5" height="80.71000000000004" as="geometry" />
        </mxCell>
        <mxCell id="29" value="" style="rounded=0;whiteSpace=wrap;html=1;fillColor=none;" parent="28" vertex="1">
          <mxGeometry width="184.5" height="80.71" as="geometry" />
        </mxCell>
        <mxCell id="72" value="CAD module" style="text;html=1;align=left;verticalAlign=middle;resizable=0;points=[];autosize=1;strokeColor=none;fillColor=none;fontFamily=Helvetica;fontSize=11;fontColor=default;labelBackgroundColor=default;" parent="28" vertex="1">
          <mxGeometry x="40" y="10" width="90" height="30" as="geometry" />
        </mxCell>
        <mxCell id="73" value="External software" style="text;html=1;align=left;verticalAlign=middle;resizable=0;points=[];autosize=1;strokeColor=none;fillColor=none;fontFamily=Helvetica;fontSize=11;fontColor=default;labelBackgroundColor=default;" parent="28" vertex="1">
          <mxGeometry x="39" y="42" width="110" height="30" as="geometry" />
        </mxCell>
        <mxCell id="74" value="" style="ellipse;whiteSpace=wrap;html=1;fillColor=#e1d5e7;strokeColor=#9673a6;sketch=0;shadow=0;aspect=fixed;" parent="28" vertex="1">
          <mxGeometry x="15" y="46" width="20" height="20" as="geometry" />
        </mxCell>
        <mxCell id="71" value="" style="ellipse;whiteSpace=wrap;html=1;fillColor=#dae8fc;strokeColor=#6c8ebf;sketch=0;shadow=0;aspect=fixed;" parent="77" vertex="1">
          <mxGeometry x="14" y="14" width="20" height="20" as="geometry" />
        </mxCell>
        <mxCell id="78" value="Common Criteria&lt;div&gt;(Security requirements database in XML)&lt;/div&gt;" style="ellipse;whiteSpace=wrap;html=1;fillColor=#e1d5e7;strokeColor=#9673a6;sketch=0;shadow=0;" parent="1" vertex="1">
          <mxGeometry x="536" y="684.5" width="144" height="85.5" as="geometry" />
        </mxCell>
        <mxCell id="79" style="shape=connector;rounded=1;html=1;dashed=1;strokeColor=default;align=center;verticalAlign=middle;fontFamily=Helvetica;fontSize=11;fontColor=default;labelBackgroundColor=default;endArrow=block;endFill=0;exitX=1;exitY=1;exitDx=0;exitDy=0;" parent="1" source="36" target="78" edge="1">
          <mxGeometry relative="1" as="geometry">
            <Array as="points">
              <mxPoint x="470" y="660" />
            </Array>
            <mxPoint x="517" y="330" as="sourcePoint" />
            <mxPoint x="725" y="235" as="targetPoint" />
          </mxGeometry>
        </mxCell>
        <mxCell id="81" value="Open-source spreadsheets" style="ellipse;whiteSpace=wrap;html=1;fillColor=#e1d5e7;strokeColor=#9673a6;sketch=0;shadow=0;" parent="1" vertex="1">
          <mxGeometry x="660" y="599" width="124" height="71" as="geometry" />
        </mxCell>
        <mxCell id="82" style="edgeStyle=orthogonalEdgeStyle;shape=connector;rounded=1;html=1;dashed=1;strokeColor=default;align=center;verticalAlign=middle;fontFamily=Helvetica;fontSize=11;fontColor=default;labelBackgroundColor=default;endArrow=block;endFill=0;" parent="1" source="20" target="81" edge="1">
          <mxGeometry relative="1" as="geometry">
            <Array as="points">
              <mxPoint x="540" y="635" />
            </Array>
            <mxPoint x="451" y="450" as="sourcePoint" />
            <mxPoint x="732" y="490" as="targetPoint" />
          </mxGeometry>
        </mxCell>
        <mxCell id="92" style="html=1;dashed=1;endArrow=block;endFill=0;elbow=vertical;" parent="1" source="83" target="91" edge="1">
          <mxGeometry relative="1" as="geometry">
            <Array as="points">
              <mxPoint x="400" y="200" />
            </Array>
          </mxGeometry>
        </mxCell>
        <mxCell id="83" value="&lt;div&gt;&lt;b&gt;Transformer&lt;/b&gt;&lt;div&gt;(CLI)&lt;/div&gt;&lt;/div&gt;" style="ellipse;whiteSpace=wrap;html=1;fillColor=#dae8fc;strokeColor=#6c8ebf;sketch=0;shadow=0;" parent="1" vertex="1">
          <mxGeometry x="354.5" y="337" width="90" height="70" as="geometry" />
        </mxCell>
        <mxCell id="91" value="Document/format&amp;nbsp;&lt;div&gt;processing tools&lt;div&gt;(e.g. quarto, pandoc)&lt;/div&gt;&lt;/div&gt;" style="ellipse;whiteSpace=wrap;html=1;fillColor=#e1d5e7;strokeColor=#9673a6;sketch=0;shadow=0;" parent="1" vertex="1">
          <mxGeometry x="196" y="90" width="140" height="85" as="geometry" />
        </mxCell>
        <mxCell id="101" style="edgeStyle=orthogonalEdgeStyle;html=1;" parent="1" source="93" target="83" edge="1">
          <mxGeometry relative="1" as="geometry">
            <Array as="points">
              <mxPoint x="320" y="589" />
              <mxPoint x="320" y="430" />
              <mxPoint x="400" y="430" />
            </Array>
          </mxGeometry>
        </mxCell>
        <mxCell id="93" value="" style="shape=waypoint;sketch=0;fillStyle=solid;size=6;pointerEvents=1;points=[];fillColor=none;resizable=0;rotatable=0;perimeter=centerPerimeter;snapToPoint=1;strokeColor=none;" parent="1" vertex="1">
          <mxGeometry x="389.5" y="579" width="20" height="20" as="geometry" />
        </mxCell>
      </root>
    </mxGraphModel>
  </diagram>
</mxfile>
